<?xml version="1.0" encoding="iso-8859-1"?>
<!-- Generator: Adobe Illustrator 19.0.0, SVG Export Plug-In . SVG Version: 6.00 Build 0)  -->
<svg xmlns="http://www.w3.org/2000/svg" xmlns:xlink="http://www.w3.org/1999/xlink" version="1.1" id="Capa_1" x="0px" y="0px" viewBox="0 0 512 512" style="enable-background:new 0 0 512 512;" xml:space="preserve">
<g transform="matrix(1.25 0 0 -1.25 0 45)">

		<g>
			<path style="fill:#3B88C3;" d="M409.6-328.089c0-25.134-20.378-45.511-45.511-45.511H45.511C20.378-373.6,0-353.222,0-328.089     V-9.511C0,15.622,20.378,36,45.511,36h318.578C389.222,36,409.6,15.622,409.6-9.511V-328.089z"/>
			<path style="fill:#FFFFFF;" d="M178.358-91.465h-38.457c-16.93,0-23.984,12.345-23.984,24.337     c0,12.356,8.818,24.348,23.984,24.348h129.832c15.155,0,23.973-11.992,23.973-24.348c0-11.992-7.043-24.337-23.973-24.337     h-38.468V-268.56c0-17.647-11.287-27.511-26.453-27.511c-15.167,0-26.453,9.865-26.453,27.511V-91.465z"/>
		</g>
</g>
</svg>
